<?xml version="1.0" encoding="UTF-8" standalone="no"?>
<svg width="808" height="144" viewBox="0 0 808 144" fill="none" xmlns="http://www.w3.org/2000/svg">
<g clip-path="url(#clip0_102_16)">
<rect width="176.462" height="144" fill="#F12323"/>
<rect x="17.4798" y="33.2948" width="140.671" height="91.5607" fill="black"/>
<rect x="25.8035" y="33.2948" width="24.9711" height="39.9538" fill="white"/>
<rect x="59.0983" y="33.2948" width="24.9711" height="39.9538" fill="white"/>
<rect x="92.393" y="33.2948" width="24.9711" height="39.9538" fill="white"/>
<rect x="125.688" y="33.2948" width="24.9711" height="39.9538" fill="white"/>
<rect x="88.2312" y="99.8844" width="24.9711" height="24.9711" fill="#FF82AD"/>
<rect x="113.202" y="108.208" width="16.6474" height="16.6474" fill="#FF82AD"/>
<rect x="88.2312" y="124.855" width="24.9711" height="24.9711" transform="rotate(-180 88.2312 124.855)" fill="#FF82AD"/>
<rect x="63.2601" y="116.532" width="16.6474" height="16.6474" transform="rotate(-180 63.2601 116.532)" fill="#FF82AD"/>
<path d="M261.652 51.5379C261.652 53.5491 261.381 55.5603 260.839 57.5716C260.375 59.5828 259.563 61.4393 258.403 63.1412C257.242 64.7656 255.734 66.2354 253.877 67.5504C252.021 68.7881 249.778 69.7164 247.147 70.3352V71.0314C249.468 71.4182 251.673 72.0757 253.761 73.004C255.85 73.9322 257.668 75.2086 259.215 76.8331C260.762 78.4575 261.961 80.4301 262.812 82.7507C263.74 85.0714 264.204 87.8175 264.204 90.9891C264.204 95.1663 263.315 98.802 261.536 101.896C259.756 104.913 257.358 107.388 254.341 109.322C251.402 111.256 248.037 112.687 244.247 113.616C240.456 114.544 236.55 115.008 232.527 115.008C231.212 115.008 229.51 115.008 227.422 115.008C225.411 115.008 223.206 114.931 220.808 114.776C218.487 114.699 216.089 114.544 213.614 114.312C211.216 114.08 209.011 113.732 207 113.267V33.2046C208.47 32.9726 210.133 32.7405 211.989 32.5084C213.923 32.2764 215.973 32.083 218.139 31.9283C220.305 31.7736 222.51 31.6575 224.753 31.5802C227.074 31.5028 229.356 31.4641 231.599 31.4641C235.389 31.4641 239.064 31.7736 242.622 32.3924C246.258 32.9339 249.468 33.9395 252.253 35.4093C255.115 36.879 257.397 38.9289 259.099 41.559C260.801 44.1891 261.652 47.5154 261.652 51.5379ZM232.643 101.896C234.577 101.896 236.434 101.664 238.213 101.2C240.069 100.736 241.694 100.04 243.086 99.1114C244.479 98.1058 245.6 96.8681 246.451 95.3984C247.302 93.9286 247.728 92.1881 247.728 90.1769C247.728 87.6241 247.225 85.6129 246.219 84.1431C245.214 82.6734 243.899 81.5517 242.274 80.7782C240.65 79.9273 238.832 79.3858 236.82 79.1537C234.809 78.9217 232.798 78.8056 230.787 78.8056H222.316V101.2C222.703 101.355 223.322 101.471 224.173 101.548C225.024 101.625 225.913 101.703 226.842 101.78C227.847 101.78 228.853 101.819 229.859 101.896C230.941 101.896 231.87 101.896 232.643 101.896ZM227.422 66.7382C228.505 66.7382 229.742 66.6995 231.135 66.6222C232.605 66.5448 233.804 66.4288 234.732 66.2741C237.671 65.3458 240.185 63.9534 242.274 62.0969C244.44 60.2403 245.523 57.8036 245.523 54.7868C245.523 52.7755 245.136 51.1124 244.363 49.7974C243.589 48.4823 242.545 47.438 241.23 46.6645C239.992 45.8909 238.561 45.3494 236.937 45.04C235.312 44.7306 233.61 44.5759 231.831 44.5759C229.82 44.5759 227.963 44.6145 226.261 44.6919C224.56 44.7693 223.245 44.8853 222.316 45.04V66.7382H227.422Z" fill="#24292F"/>
<path d="M275.555 32.6245H323.708V46.7805H291.451V65.6939H320.808V79.8499H291.451V99.6916H324.289V113.848H275.555V32.6245Z" fill="#24292F"/>
<path d="M356.367 71.4955L349.985 58.7319H349.405L351.262 71.4955V113.848H336.177V32.0443H347.781L378.529 75.3246L384.679 87.7402H385.259L383.403 75.3246V32.6245H398.487V114.428H386.884L356.367 71.4955Z" fill="#24292F"/>
<path d="M409.885 39.1223C409.885 36.879 410.62 35.0612 412.089 33.6688C413.636 32.2764 415.57 31.5802 417.891 31.5802C420.676 31.5802 422.88 32.5084 424.505 34.365C426.129 36.2215 426.942 38.6582 426.942 41.675C426.942 44.7693 426.439 47.3993 425.433 49.5653C424.505 51.7312 423.345 53.5491 421.952 55.0188C420.637 56.4112 419.206 57.5329 417.659 58.3838C416.189 59.1574 414.951 59.7375 413.946 60.1243L410.117 53.7425C411.664 53.0463 413.018 52.118 414.178 50.9577C415.416 49.7974 416.112 48.3276 416.267 46.5484C414.719 46.6258 413.25 46.0456 411.857 44.8079C410.542 43.4929 409.885 41.5977 409.885 39.1223Z" fill="#24292F"/>
<path d="M473.315 92.0334C473.315 89.558 472.387 87.5468 470.53 85.9997C468.751 84.4526 466.469 83.0602 463.684 81.8225C460.977 80.5074 457.999 79.1924 454.75 77.8774C451.578 76.485 448.6 74.8218 445.815 72.8879C443.108 70.8767 440.826 68.4013 438.969 65.4618C437.19 62.5223 436.3 58.7706 436.3 54.2066C436.3 50.2615 436.958 46.8579 438.273 43.9957C439.588 41.0562 441.444 38.6195 443.842 36.6856C446.318 34.7517 449.219 33.3207 452.545 32.3924C455.871 31.4641 459.584 31 463.684 31C468.403 31 472.851 31.4255 477.028 32.2764C481.205 33.0499 484.647 34.2103 487.355 35.7574L482.365 49.1012C480.664 48.0182 478.111 47.0512 474.707 46.2003C471.304 45.2721 467.629 44.8079 463.684 44.8079C459.971 44.8079 457.109 45.5428 455.098 47.0126C453.164 48.4823 452.197 50.4549 452.197 52.9303C452.197 55.2509 453.086 57.1848 454.866 58.7319C456.722 60.279 459.004 61.7101 461.712 63.0251C464.496 64.3402 467.475 65.6939 470.646 67.0863C473.895 68.4787 476.873 70.1805 479.581 72.1917C482.365 74.1256 484.647 76.5623 486.427 79.5018C488.283 82.364 489.211 85.961 489.211 90.2929C489.211 94.6248 488.477 98.3765 487.007 101.548C485.614 104.642 483.603 107.234 480.973 109.322C478.42 111.411 475.287 112.958 471.574 113.964C467.939 114.969 463.916 115.472 459.507 115.472C453.705 115.472 448.6 114.931 444.191 113.848C439.781 112.765 436.532 111.682 434.444 110.599L439.549 97.0228C440.4 97.487 441.483 97.9898 442.798 98.5312C444.191 99.0727 445.738 99.5755 447.44 100.04C449.141 100.504 450.921 100.891 452.777 101.2C454.711 101.509 456.683 101.664 458.695 101.664C463.413 101.664 467.01 100.891 469.486 99.3435C472.039 97.719 473.315 95.2823 473.315 92.0334Z" fill="#24292F"/>
<path d="M583.802 51.5379C583.802 53.5491 583.531 55.5603 582.99 57.5716C582.526 59.5828 581.713 61.4393 580.553 63.1412C579.393 64.7656 577.884 66.2354 576.028 67.5504C574.171 68.7881 571.928 69.7164 569.298 70.3352V71.0314C571.619 71.4182 573.823 72.0757 575.912 73.004C578 73.9322 579.818 75.2086 581.365 76.8331C582.912 78.4575 584.111 80.4301 584.962 82.7507C585.891 85.0714 586.355 87.8175 586.355 90.9891C586.355 95.1663 585.465 98.802 583.686 101.896C581.907 104.913 579.509 107.388 576.492 109.322C573.552 111.256 570.187 112.687 566.397 113.616C562.607 114.544 558.7 115.008 554.678 115.008C553.363 115.008 551.661 115.008 549.572 115.008C547.561 115.008 545.356 114.931 542.958 114.776C540.638 114.699 538.24 114.544 535.764 114.312C533.366 114.08 531.162 113.732 529.15 113.267V33.2046C530.62 32.9726 532.283 32.7405 534.14 32.5084C536.074 32.2764 538.124 32.083 540.29 31.9283C542.456 31.7736 544.66 31.6575 546.903 31.5802C549.224 31.5028 551.506 31.4641 553.749 31.4641C557.54 31.4641 561.214 31.7736 564.773 32.3924C568.408 32.9339 571.618 33.9395 574.403 35.4093C577.265 36.879 579.547 38.9289 581.249 41.559C582.951 44.1891 583.802 47.5154 583.802 51.5379ZM554.794 101.896C556.728 101.896 558.584 101.664 560.363 101.2C562.22 100.736 563.844 100.04 565.237 99.1114C566.629 98.1058 567.751 96.8681 568.602 95.3984C569.453 93.9286 569.878 92.1881 569.878 90.1769C569.878 87.6241 569.375 85.6129 568.37 84.1431C567.364 82.6734 566.049 81.5517 564.424 80.7782C562.8 79.9273 560.982 79.3858 558.971 79.1537C556.96 78.9217 554.948 78.8056 552.937 78.8056H544.467V101.2C544.854 101.355 545.472 101.471 546.323 101.548C547.174 101.625 548.064 101.703 548.992 101.78C549.998 101.78 551.003 101.819 552.009 101.896C553.092 101.896 554.02 101.896 554.794 101.896ZM549.572 66.7382C550.655 66.7382 551.893 66.6995 553.285 66.6222C554.755 66.5448 555.954 66.4288 556.882 66.2741C559.822 65.3458 562.336 63.9534 564.424 62.0969C566.59 60.2403 567.673 57.8036 567.673 54.7868C567.673 52.7755 567.287 51.1124 566.513 49.7974C565.74 48.4823 564.695 47.438 563.38 46.6645C562.142 45.8909 560.711 45.3494 559.087 45.04C557.462 44.7306 555.761 44.5759 553.981 44.5759C551.97 44.5759 550.114 44.6145 548.412 44.6919C546.71 44.7693 545.395 44.8853 544.467 45.04V66.7382H549.572Z" fill="#24292F"/>
<path d="M599.33 32.6245H615.226V113.848H599.33V32.6245Z" fill="#24292F"/>
<path d="M688.461 46.7805H664.79V113.848H648.894V46.7805H625.107V32.6245H688.461V46.7805Z" fill="#24292F"/>
<path d="M696.741 32.6245H744.895V46.7805H712.638V65.6939H741.994V79.8499H712.638V99.6916H745.475V113.848H696.741V32.6245Z" fill="#24292F"/>
<path d="M792.406 92.0334C792.406 89.558 791.478 87.5468 789.621 85.9997C787.842 84.4526 785.56 83.0602 782.775 81.8225C780.068 80.5074 777.089 79.1924 773.841 77.8774C770.669 76.485 767.691 74.8218 764.906 72.8879C762.199 70.8767 759.917 68.4013 758.06 65.4618C756.281 62.5223 755.391 58.7706 755.391 54.2066C755.391 50.2615 756.049 46.8579 757.364 43.9957C758.679 41.0562 760.535 38.6195 762.933 36.6856C765.409 34.7517 768.31 33.3207 771.636 32.3924C774.962 31.4641 778.675 31 782.775 31C787.494 31 791.942 31.4255 796.119 32.2764C800.296 33.0499 803.738 34.2103 806.446 35.7574L801.456 49.1012C799.755 48.0182 797.202 47.0512 793.798 46.2003C790.395 45.2721 786.72 44.8079 782.775 44.8079C779.062 44.8079 776.2 45.5428 774.189 47.0126C772.255 48.4823 771.288 50.4549 771.288 52.9303C771.288 55.2509 772.177 57.1848 773.957 58.7319C775.813 60.279 778.095 61.7101 780.802 63.0251C783.587 64.3402 786.565 65.6939 789.737 67.0863C792.986 68.4787 795.964 70.1805 798.672 72.1917C801.456 74.1256 803.738 76.5623 805.518 79.5018C807.374 82.364 808.302 85.961 808.302 90.2929C808.302 94.6248 807.567 98.3765 806.098 101.548C804.705 104.642 802.694 107.234 800.064 109.322C797.511 111.411 794.378 112.958 790.665 113.964C787.03 114.969 783.007 115.472 778.598 115.472C772.796 115.472 767.691 114.931 763.282 113.848C758.872 112.765 755.623 111.682 753.535 110.599L758.64 97.0228C759.491 97.487 760.574 97.9898 761.889 98.5312C763.281 99.0727 764.829 99.5755 766.53 100.04C768.232 100.504 770.011 100.891 771.868 101.2C773.802 101.509 775.774 101.664 777.786 101.664C782.504 101.664 786.101 100.891 788.577 99.3435C791.129 97.719 792.406 95.2823 792.406 92.0334Z" fill="#24292F"/>
</g>
<defs>
<clipPath id="clip0_102_16">
<rect width="808" height="144" fill="white"/>
</clipPath>
</defs>
</svg>
