<svg width="18" height="24" viewBox="0 0 18 24" fill="none" xmlns="http://www.w3.org/2000/svg">
<path fill-rule="evenodd" clip-rule="evenodd" d="M8.27574 5.06497C8.58661 5.23337 8.72649 5.67667 8.58815 6.05511C8.2959 6.85465 8.15048 7.93748 8.27949 8.69689C8.34247 9.0676 8.45474 9.27329 8.56731 9.37503C8.66504 9.46335 8.85728 9.55894 9.25539 9.45569C9.58819 9.36938 9.91545 9.62783 9.98635 10.033C10.0573 10.4381 9.84494 10.8365 9.51215 10.9228C8.86881 11.0896 8.28809 10.9909 7.8328 10.5794C7.39234 10.1813 7.17153 9.58174 7.07282 9.00066C6.87845 7.85648 7.09523 6.44969 7.46238 5.44528C7.60071 5.06684 7.96487 4.89657 8.27574 5.06497Z" fill="black" fill-opacity="0.9"/>
<path fill-rule="evenodd" clip-rule="evenodd" d="M7.68718 6.8367C7.7544 6.27345 8.0557 5.95163 8.49298 5.74016L7.68718 6.8367ZM8.49298 5.74016C8.96782 5.51053 9.58939 5.42652 10.1634 5.42652L8.49298 5.74016ZM7.83976 4.46288C8.60365 4.09346 9.4839 4 10.1634 4C11.1417 4 11.8911 4.40328 12.4305 5.02363C12.9459 5.61632 13.256 6.38823 13.4594 7.14643C13.665 7.91294 13.7778 8.73035 13.8587 9.45784C13.8886 9.7271 13.9137 9.97797 13.9369 10.2105C13.979 10.6315 14.0151 10.9924 14.063 11.2935L14.063 11.2937C14.0945 11.4918 14.1929 11.6647 14.3886 11.9558C14.4016 11.9751 14.4152 11.9951 14.4292 12.0158C14.606 12.2768 14.8564 12.6463 14.9774 13.1117C15.0767 13.4936 14.8389 13.8815 14.4462 13.9781C14.0534 14.0746 13.6546 13.8433 13.5553 13.4614C13.4965 13.2355 13.3728 13.0516 13.1638 12.7408L13.161 12.7366C12.9691 12.4514 12.6983 12.0469 12.6132 11.5113C12.5593 11.1719 12.516 10.7411 12.4707 10.2895C12.4483 10.0656 12.4253 9.83661 12.4002 9.61108C12.3214 8.90148 12.2175 8.16849 12.0399 7.50649C11.8601 6.83619 11.6206 6.3015 11.3103 5.94471C11.0242 5.61559 10.672 5.42652 10.1634 5.42652M7.83976 4.46288C7.03832 4.85046 6.36398 5.54928 6.23 6.67239L7.83976 4.46288ZM6.23 6.67239L6.22999 6.67246L6.23 6.67239ZM7.62311 7.35282C7.48293 8.45948 7.35868 9.44032 7.60854 10.3752C7.71044 10.7564 7.47522 11.1458 7.08316 11.2449C6.6911 11.344 6.29066 11.1153 6.18877 10.734C5.86243 9.513 6.0291 8.23074 6.16993 7.14729C6.19112 6.98421 6.21173 6.82564 6.22999 6.67246M7.62311 7.35282C7.64452 7.18383 7.6663 7.01191 7.68717 6.83677L7.62311 7.35282Z" fill="black" fill-opacity="0.9"/>
<path fill-rule="evenodd" clip-rule="evenodd" d="M13.5903 13.0492C13.9209 12.9084 14.2959 13.0801 14.4279 13.4325C15.1255 15.2945 15.2064 17.0802 14.5529 18.4889C13.8863 19.9256 12.5335 20.8059 10.7075 20.9967C10.3532 21.0337 10.0378 20.7575 10.0031 20.3798C9.9684 20.0022 10.2275 19.666 10.5818 19.629C12.0777 19.4727 12.9737 18.7927 13.3973 17.8797C13.8339 16.9387 13.8462 15.5852 13.2307 13.9421C13.0987 13.5897 13.2596 13.1899 13.5903 13.0492Z" fill="black" fill-opacity="0.9"/>
<path fill-rule="evenodd" clip-rule="evenodd" d="M7.09342 5.35217C7.28864 5.01831 7.72582 4.90122 8.06989 5.09064C9.22746 5.72793 10.0612 7.04205 10.5292 8.37667C11.0009 9.72199 11.1649 11.2673 10.8038 12.4955C10.6952 12.8646 10.2988 13.0785 9.91842 12.9731C9.53801 12.8678 9.31762 12.4832 9.42616 12.1141C9.68214 11.2436 9.5855 10.0009 9.17299 8.82441C8.75672 7.63726 8.08266 6.69589 7.36294 6.29965C7.01887 6.11023 6.8982 5.68602 7.09342 5.35217Z" fill="black" fill-opacity="0.9"/>
<path fill-rule="evenodd" clip-rule="evenodd" d="M12.9927 11.6098C13.0496 11.9974 12.7691 12.356 12.3662 12.4108C10.129 12.715 8.66969 14.9887 8.47115 17.3483C8.43832 17.7385 8.08292 18.0292 7.67735 17.9977C7.27178 17.9661 6.96961 17.6241 7.00244 17.2339C7.22607 14.5761 8.92568 11.4468 12.1601 11.0071C12.563 10.9523 12.9357 11.2221 12.9927 11.6098Z" fill="black" fill-opacity="0.9"/>
<path fill-rule="evenodd" clip-rule="evenodd" d="M7.76369 11.1935C8.07757 11.4524 8.07894 11.8734 7.76675 12.1338C7.00357 12.7702 6.2661 14.0696 5.87691 15.5003C5.68601 16.2021 5.58832 16.9031 5.60499 17.5284C5.62186 18.1615 5.75474 18.6724 5.97803 19.0275C6.18278 19.353 6.03057 19.7546 5.63807 19.9245C5.24556 20.0943 4.76139 19.9681 4.55664 19.6425C4.17771 19.0399 4.02211 18.304 4.00222 17.5578C3.98213 16.8039 4.09938 15.9932 4.31307 15.2077C4.73305 13.6637 5.56336 12.0856 6.63009 11.196C6.94228 10.9357 7.44981 10.9345 7.76369 11.1935Z" fill="black" fill-opacity="0.9"/>
<path fill-rule="evenodd" clip-rule="evenodd" d="M7.58949 11.0513C7.92707 11.195 8.08876 11.5961 7.95064 11.9473C7.34058 13.4983 7.12541 15.5163 7.52136 17.1444C7.61081 17.5122 7.39667 17.8858 7.04307 17.9789C6.68947 18.0719 6.33031 17.8492 6.24086 17.4813C5.7658 15.5279 6.02743 13.2086 6.72817 11.427C6.86629 11.0759 7.25192 10.9077 7.58949 11.0513Z" fill="black" fill-opacity="0.9"/>
<path fill-rule="evenodd" clip-rule="evenodd" d="M7.02023 17.6402C7.10612 17.1819 7.44091 16.908 7.76801 17.0283C8.49411 17.2954 9.21597 17.8017 9.78764 18.4926C10.0437 18.8021 10.0722 19.3438 9.85129 19.7025C9.63039 20.0612 9.24372 20.1012 8.98766 19.7917C8.56992 19.2868 8.01954 18.8947 7.45697 18.6877C7.12987 18.5674 6.93434 18.0984 7.02023 17.6402Z" fill="black" fill-opacity="0.9"/>
<path fill-rule="evenodd" clip-rule="evenodd" d="M12.7382 14.1961C13.0476 14.4945 13.0886 15.0255 12.8299 15.3823C12.7081 15.5503 12.5862 15.7163 12.4651 15.8811C12.0853 16.3982 11.7136 16.9041 11.3769 17.429C10.9356 18.1169 10.5993 18.7713 10.4277 19.4078C10.3079 19.8518 9.89868 20.0999 9.51358 19.9618C9.12848 19.8237 8.91338 19.3517 9.03313 18.9077C9.27554 18.0088 9.72161 17.1774 10.2028 16.4274C10.571 15.8534 10.9863 15.2882 11.3726 14.7625C11.4882 14.6052 11.6012 14.4514 11.7096 14.3019C11.9683 13.9451 12.4288 13.8978 12.7382 14.1961Z" fill="black" fill-opacity="0.9"/>
<path fill-rule="evenodd" clip-rule="evenodd" d="M0.701495 1.00075C1.10686 0.982676 1.45035 1.29161 1.46871 1.69079C1.64044 5.42454 1.74938 12.3585 1.79633 22.4806C10.0647 22.5896 15.191 22.5748 17.2159 22.4405C17.6207 22.4136 17.971 22.715 17.9983 23.1137C18.0256 23.5124 17.7195 23.8573 17.3146 23.8842C15.1583 24.0273 9.72353 24.0369 1.05453 23.9178C0.654 23.9123 0.33176 23.5919 0.330067 23.1974C0.284964 12.6855 0.17492 5.5428 0.000766388 1.75626C-0.0175928 1.35708 0.296134 1.01883 0.701495 1.00075Z" fill="black" fill-opacity="0.5"/>
<path fill-rule="evenodd" clip-rule="evenodd" d="M9.48505 1.82204C6.91855 1.96831 4.28896 2.11817 1.6553 1.85859C1.26099 1.81973 0.968799 1.42145 1.00267 0.969019C1.03654 0.516587 1.38365 0.181325 1.77796 0.22019C4.31446 0.470196 6.86202 0.325035 9.45973 0.177018L9.4858 0.175533C12.0757 0.0279627 14.7167 -0.121231 17.3483 0.15335C17.7424 0.194476 18.0329 0.594421 17.997 1.04665C17.9612 1.49888 17.6126 1.83215 17.2185 1.79103C14.7037 1.52863 12.1629 1.66946 9.55688 1.81794L9.48505 1.82204Z" fill="black" fill-opacity="0.5"/>
<path fill-rule="evenodd" clip-rule="evenodd" d="M16.946 1.38311e-05C17.4716 -0.00245766 17.9002 0.326608 17.9034 0.735003C17.9248 3.47696 17.9185 6.21858 17.9121 8.95667C17.9019 13.4004 17.8917 17.8349 17.9998 22.2464C18.0098 22.6548 17.5919 22.9921 17.0664 22.9999C16.5409 23.0076 16.1067 22.6829 16.0967 22.2746C15.9883 17.8524 15.9985 13.3852 16.0087 8.92674C16.0149 6.19175 16.0212 3.46004 16 0.743953C15.9968 0.335558 16.4203 0.00248532 16.946 1.38311e-05Z" fill="black" fill-opacity="0.5"/>
<path fill-rule="evenodd" clip-rule="evenodd" d="M4.78227 11.5213C4.14046 11.3675 3.5568 11.257 2.76571 11.284C2.35912 11.2979 2.01656 11.0228 2.00058 10.6697C1.9846 10.3165 2.30125 10.0189 2.70784 10.005C3.71651 9.9706 4.46713 10.118 5.17411 10.2874C5.29396 10.3162 5.41117 10.3451 5.5274 10.3738C6.09485 10.5138 6.63908 10.6481 7.35356 10.7248C7.75739 10.7682 8.04428 11.0877 7.99436 11.4385C7.94443 11.7893 7.57659 12.0385 7.17276 11.9951C6.33623 11.9053 5.67386 11.7413 5.10198 11.5997C4.99228 11.5725 4.8859 11.5461 4.78227 11.5213Z" fill="black" fill-opacity="0.9"/>
<path fill-rule="evenodd" clip-rule="evenodd" d="M6.92903 12.5005C7.099 12.942 6.95322 13.4739 6.60344 13.6884C6.30991 13.8684 5.95644 13.9363 5.64883 13.9685C5.32487 14.0024 4.96617 14.0037 4.61977 13.9964C4.42874 13.9925 4.24357 13.9863 4.06595 13.9804C3.5611 13.9637 3.11721 13.9489 2.77309 13.9916C2.38606 14.0396 2.04147 13.6825 2.00343 13.194C1.96539 12.7055 2.2483 12.2706 2.63534 12.2226C3.07528 12.168 3.65263 12.1875 4.18265 12.2054C4.34207 12.2108 4.4972 12.2161 4.64303 12.2191C4.97894 12.2261 5.28066 12.2233 5.5324 12.197C5.80048 12.1689 5.93799 12.1202 5.98792 12.0896C6.33771 11.875 6.75906 12.059 6.92903 12.5005Z" fill="black" fill-opacity="0.9"/>
<path fill-rule="evenodd" clip-rule="evenodd" d="M15.9226 13.5598C16.0707 13.1198 15.9999 12.5388 15.7644 12.2621C15.6179 12.09 15.4568 12.0409 15.3552 12.0205C15.2423 11.9978 15.1247 11.9981 15.0256 12.002C14.9532 12.0049 14.891 12.0089 14.8369 12.0123C14.7141 12.0201 14.6325 12.0252 14.5673 12.0097C14.2913 11.9441 14.0392 12.3089 14.0041 12.8246C13.969 13.3402 14.1642 13.8113 14.4402 13.8769C14.5505 13.9031 14.6673 13.9032 14.7631 13.8996C14.8131 13.8978 14.864 13.8945 14.911 13.8915L14.9123 13.8914C14.9601 13.8884 15.0042 13.8855 15.0471 13.8838C15.1365 13.8803 15.2014 13.8827 15.2476 13.8919C15.2555 13.8935 15.2618 13.8951 15.2667 13.8965C15.4966 14.117 15.7825 13.9761 15.9226 13.5598Z" fill="black" fill-opacity="0.9"/>
</svg>
