<svg width="25" height="20" viewBox="0 0 25 20" fill="none" xmlns="http://www.w3.org/2000/svg">
<path fill-rule="evenodd" clip-rule="evenodd" d="M23.205 1.10219C23.6396 1.41296 24.1132 1.75159 24.7006 2.10167C24.9893 2.2737 25.086 2.65077 24.9165 2.94389C24.7471 3.237 24.3758 3.33516 24.0871 3.16314C23.4538 2.78572 22.9111 2.39784 22.4642 2.07835C22.2927 1.95573 22.1352 1.84317 21.9921 1.74516C21.4289 1.35934 21.1236 1.22635 20.885 1.23088C20.352 1.24099 19.9004 1.48363 19.4866 1.92414C19.0628 2.37535 18.7049 3.00899 18.3906 3.72534C18.1123 4.35934 17.8838 5.01989 17.6726 5.63054C17.646 5.70729 17.6198 5.78326 17.5937 5.85828C17.479 6.18854 17.3665 6.50538 17.2546 6.77804C17.1461 7.04265 17.0219 7.30737 16.8734 7.51198C16.7918 7.6244 16.6938 7.68558 16.6393 7.7152C16.5789 7.74803 16.5209 7.76922 16.4764 7.78321C16.3877 7.81111 16.2923 7.8289 16.2063 7.84159C16.0307 7.86746 15.8092 7.88386 15.5701 7.89568C15.1821 7.91486 14.6969 7.92408 14.1927 7.93367C14.0724 7.93596 13.9509 7.93827 13.8294 7.94074C13.1905 7.95373 12.5442 7.97123 12.0021 8.01189C11.731 8.03222 11.4957 8.05767 11.3061 8.08921C11.1054 8.1226 10.9981 8.15632 10.9575 8.17536L10.9574 8.17542C9.77197 8.7321 8.96894 9.78446 8.25226 11.0746C7.97311 11.5772 7.71708 12.0963 7.45574 12.6261C7.38124 12.7772 7.30631 12.9291 7.23028 13.0818C6.89294 13.7593 6.53724 14.4445 6.1263 15.062C5.5152 15.9805 4.62913 16.9283 3.6885 17.7145C3.93667 17.5596 4.19198 17.3926 4.45105 17.2165C6.35103 15.9249 8.27935 14.2695 8.69108 13.8927C8.97709 13.6309 9.33154 13.6064 9.57467 13.6239C9.82579 13.6421 10.0843 13.7142 10.2997 13.7826C10.411 13.818 10.5224 13.8563 10.6248 13.8915L10.6252 13.8916C10.7302 13.9277 10.8253 13.9604 10.9155 13.989C11.1108 14.051 11.2172 14.0712 11.2654 14.072C13.944 14.1121 15.6877 13.6171 16.8382 12.8862C17.9759 12.1634 18.5934 11.1718 18.9512 10.0847C19.3155 8.97774 19.4044 7.79423 19.4856 6.6934L19.4862 6.68645C19.5256 6.152 19.5646 5.62255 19.6404 5.16209C19.715 4.70855 19.8365 4.24155 20.088 3.87288C20.1808 3.7368 20.2998 3.67867 20.3391 3.66058C20.3908 3.63677 20.4352 3.62515 20.4584 3.61971C20.5059 3.60854 20.5467 3.60475 20.5661 3.60317C20.6096 3.59964 20.6542 3.59937 20.6881 3.5996C20.7604 3.60011 20.8554 3.60387 20.9595 3.60865C21.0268 3.61175 21.1003 3.61538 21.1797 3.6193C21.3558 3.628 21.5606 3.63812 21.7895 3.64687C22.4539 3.67228 23.2613 3.68328 23.9323 3.61133C24.2651 3.57563 24.5635 3.82069 24.5986 4.15868C24.6338 4.49667 24.3924 4.7996 24.0596 4.8353C23.2974 4.91703 22.4173 4.90253 21.7439 4.87677C21.5083 4.86776 21.2906 4.85701 21.1119 4.84819C21.0571 4.84548 21.0059 4.84296 20.9591 4.84072C20.9134 4.97491 20.8718 5.14696 20.8359 5.36495C20.7707 5.76113 20.7351 6.23293 20.6944 6.78533L20.6913 6.82648C20.6124 7.89683 20.5152 9.21544 20.1008 10.4748C19.6745 11.7701 18.9072 13.0236 17.4811 13.9295C16.0678 14.8275 14.0688 15.3449 11.2475 15.3026C11.0068 15.299 10.7516 15.2265 10.554 15.1638C10.4499 15.1307 10.3429 15.094 10.2427 15.0595L10.2365 15.0574C10.1319 15.0214 10.0336 14.9877 9.93777 14.9572C9.7384 14.8939 9.59188 14.8591 9.48868 14.8516C9.4751 14.8506 9.46394 14.8502 9.45494 14.8502C8.93267 15.3209 7.02252 16.9496 5.12534 18.2392C4.15266 18.9004 3.13925 19.5033 2.30066 19.7992C1.88926 19.9443 1.4454 20.0434 1.04145 19.981C0.829103 19.9482 0.612082 19.8682 0.423361 19.7129C0.232432 19.5557 0.104344 19.3493 0.030193 19.1195L0.0299797 19.1189C-0.0230242 18.954 0.00528422 18.8122 0.0309313 18.7338C0.0564412 18.6558 0.0917341 18.6004 0.111337 18.5723C0.150353 18.5162 0.189797 18.48 0.202716 18.4683C0.233858 18.44 0.261395 18.4211 0.2689 18.4159L0.269093 18.4158C0.289566 18.4017 0.30775 18.391 0.314659 18.3869C0.332359 18.3766 0.35186 18.3659 0.368102 18.3572C0.402701 18.3386 0.449323 18.3143 0.501565 18.2874C0.60705 18.233 0.748522 18.1612 0.891903 18.0885L0.921221 18.0737C1.05604 18.0053 1.19118 17.9368 1.30232 17.8799C1.36196 17.8493 1.41334 17.8228 1.45328 17.8018C1.47326 17.7913 1.48936 17.7828 1.50162 17.7762C1.51172 17.7707 1.5167 17.7679 1.51802 17.7671C1.51847 17.7669 1.5185 17.7669 1.51815 17.7671C2.81482 17.0016 4.28275 15.6343 5.12194 14.3729L5.12199 14.3728C5.4869 13.8245 5.81361 13.1991 6.14858 12.5265C6.21975 12.3835 6.29148 12.238 6.36401 12.091C6.62737 11.5569 6.90117 11.0016 7.1965 10.47C7.95061 9.11243 8.91117 7.78031 10.4486 7.05833C10.6428 6.96709 10.8826 6.91248 11.1102 6.87462C11.349 6.8349 11.6235 6.80616 11.9128 6.78446C12.4912 6.74108 13.1673 6.72319 13.8052 6.71021C13.932 6.70763 14.0571 6.70525 14.1797 6.70291C14.6822 6.69333 15.1431 6.68455 15.5112 6.66636C15.714 6.65633 15.8736 6.64406 15.9883 6.62955C16.0309 6.54751 16.08 6.44059 16.1357 6.30488C16.2331 6.06736 16.3356 5.77992 16.4506 5.44878C16.4761 5.37556 16.5021 5.3004 16.5286 5.22357C16.7381 4.6175 16.9836 3.9075 17.2834 3.22436C17.6201 2.4573 18.0453 1.67527 18.6095 1.07468C19.1837 0.463395 19.9249 0.0181128 20.8623 0.000318887C21.5284 -0.0123236 22.1273 0.353037 22.6701 0.724888C22.8452 0.844873 23.0217 0.971053 23.205 1.10219ZM15.8979 6.78142C15.8977 6.78165 15.8975 6.78188 15.8974 6.78211L15.8975 6.78191C15.8976 6.78175 15.8978 6.78159 15.8979 6.78142ZM1.51815 17.7671C1.51811 17.7671 1.51807 17.7671 1.51803 17.7671L1.82262 18.2992L1.51815 17.7671ZM9.42408 14.852C9.42402 14.852 9.42516 14.8517 9.42768 14.8514C9.4254 14.8519 9.42414 14.8521 9.42408 14.852ZM1.18119 18.753C1.18121 18.753 1.1816 18.7532 1.18231 18.7536C1.18153 18.7532 1.18117 18.753 1.18119 18.753Z" fill="black" fill-opacity="0.9"/>
<path fill-rule="evenodd" clip-rule="evenodd" d="M12.1882 4.25494C12.3753 4.06176 12.6289 3.96865 12.9018 4.00944C13.7054 4.12952 14.2799 4.66259 14.7115 5.17117C14.8991 5.39228 15.0761 5.62923 15.2366 5.84406C15.2617 5.87758 15.2863 5.91057 15.3105 5.94287C15.4971 6.19168 15.6605 6.403 15.8239 6.57413C16.0559 6.81723 16.0591 7.21471 15.8309 7.46194C15.6027 7.70916 15.2296 7.71251 14.9976 7.46941C14.7779 7.23928 14.5748 6.97338 14.3897 6.72649C14.3634 6.69147 14.3375 6.65679 14.3119 6.62247C14.1497 6.40558 13.9981 6.20274 13.8373 6.01323C13.547 5.67117 13.2788 5.43749 12.9931 5.32267C12.9739 5.45477 12.9615 5.62714 12.9538 5.83559C12.9508 5.9175 12.9485 6.00842 12.9462 6.10224C12.9408 6.3145 12.9352 6.54161 12.9196 6.71285C12.9089 6.83046 12.8881 7.00752 12.8243 7.16472C12.7921 7.24405 12.7226 7.38614 12.5786 7.49395C12.4054 7.62361 12.2004 7.64789 12.021 7.5944L12.0206 7.59428C11.7034 7.49947 11.3673 7.29959 11.0721 7.11174C10.9439 7.03018 10.8228 6.95049 10.7036 6.87208C10.5181 6.74998 10.3373 6.631 10.1419 6.51291C9.83135 6.32523 9.55745 6.1872 9.32182 6.12059C9.13805 6.06864 9.01621 6.0708 8.93251 6.09508C8.93263 6.09695 8.93276 6.09886 8.93291 6.10082C8.94434 6.25398 9.01471 6.48675 9.14179 6.80138C9.19811 6.94082 9.25912 7.08137 9.32206 7.22637C9.32657 7.23676 9.3311 7.24718 9.33563 7.25762C9.40154 7.40952 9.47042 7.56895 9.5285 7.71894C9.58532 7.86569 9.64204 8.02898 9.67534 8.18788C9.7042 8.32559 9.74138 8.57219 9.64666 8.81998C9.54088 9.09688 9.31483 9.19169 9.2302 9.22045C9.12926 9.25474 9.0322 9.26273 8.96761 9.26517C8.83243 9.27028 8.67616 9.25487 8.53119 9.23588C8.32425 9.20878 8.06767 9.16372 7.80946 9.11837C7.7025 9.09959 7.59526 9.08076 7.49117 9.06313C7.11678 8.99975 6.76681 8.94878 6.49541 8.93916C6.39838 8.93572 6.32527 8.93824 6.27325 8.94357C6.24237 9.01934 6.23542 9.11193 6.25905 9.24598C6.29761 9.46465 6.40917 9.72881 6.57705 10.0528C6.62665 10.1486 6.68528 10.2566 6.74666 10.3696C6.86607 10.5896 6.99585 10.8286 7.08966 11.0336C7.22547 11.3303 7.40389 11.7858 7.29424 12.2444C7.17024 12.763 6.77712 12.9807 6.53664 13.0919C6.45796 13.1282 6.36063 13.1679 6.27673 13.2021C6.2385 13.2176 6.20306 13.2321 6.17344 13.2446C6.06108 13.2919 5.96245 13.3381 5.87124 13.3938C5.70096 13.4977 5.544 13.6413 5.4203 13.9043C5.29025 14.1808 5.17852 14.6294 5.17852 15.3722C5.17852 15.7189 4.9147 16 4.58926 16C4.26382 16 4 15.7189 4 15.3722C4 14.5052 4.12906 13.847 4.36668 13.3418C4.61066 12.8231 4.94827 12.5101 5.28552 12.3043C5.44809 12.2051 5.60647 12.1332 5.74013 12.0769C5.80075 12.0514 5.85007 12.0314 5.89355 12.0138C5.95867 11.9874 6.01065 11.9663 6.06776 11.9399C6.10187 11.9241 6.12679 11.9111 6.14463 11.901C6.13493 11.8527 6.1083 11.7542 6.03038 11.5839C5.95217 11.4131 5.86315 11.2499 5.76114 11.0629C5.69487 10.9414 5.62312 10.8098 5.54529 10.6596C5.36944 10.3202 5.17647 9.90701 5.1008 9.47778C5.02044 9.022 5.06755 8.51053 5.41283 8.05925L5.41286 8.05921C5.59297 7.82385 5.84841 7.74835 6.00012 7.71771C6.17222 7.68296 6.35959 7.67806 6.53459 7.68426C6.88704 7.69675 7.30199 7.75976 7.67613 7.8231C7.79998 7.84407 7.91857 7.86491 8.03123 7.8847C8.13676 7.90324 8.23708 7.92087 8.33164 7.93683C8.31081 7.88814 8.28886 7.83743 8.2659 7.78452C8.26102 7.77327 8.25609 7.76192 8.25112 7.75048C8.18951 7.60857 8.12211 7.45333 8.05925 7.29769C7.92975 6.97709 7.78629 6.57792 7.7581 6.20036C7.74348 6.00441 7.75597 5.77116 7.85008 5.54355C7.95022 5.30135 8.12401 5.1118 8.35337 4.99179L8.35362 4.99166C8.78496 4.76624 9.23779 4.7978 9.62406 4.90699C10.008 5.01554 10.387 5.21752 10.7234 5.4208C10.9317 5.5467 11.1536 5.69242 11.3565 5.82568C11.4711 5.90097 11.5797 5.97229 11.6764 6.0338C11.7076 6.05366 11.7379 6.0727 11.7672 6.09093C11.7695 5.99805 11.7721 5.89696 11.7762 5.78625C11.7874 5.48201 11.8104 5.09645 11.9015 4.78339C11.9469 4.62735 12.0278 4.42058 12.1882 4.25494ZM8.52994 8.49218C8.52976 8.49204 8.52928 8.48876 8.52904 8.48276C8.53 8.48932 8.53012 8.49232 8.52994 8.49218ZM8.92977 8.01018C8.93212 8.0099 8.93338 8.00983 8.93342 8.00986C8.93346 8.00989 8.93229 8.01003 8.92977 8.01018ZM6.18475 11.8744C6.18487 11.8744 6.18397 11.8753 6.1817 11.8771C6.1835 11.8753 6.18464 11.8744 6.18475 11.8744ZM6.2035 8.95503C6.19785 8.95736 6.19458 8.95822 6.19436 8.95808C6.19414 8.95793 6.19697 8.95677 6.2035 8.95503ZM13.0422 5.11232C13.0422 5.11233 13.0421 5.11267 13.0417 5.11331C13.0421 5.11263 13.0422 5.11231 13.0422 5.11232ZM12.7381 5.25286C12.7381 5.25286 12.7381 5.25286 12.7381 5.25286L12.7381 5.25286Z" fill="black" fill-opacity="0.9"/>
<path fill-rule="evenodd" clip-rule="evenodd" d="M13.4973 10.1994C13.7167 9.94644 14.0855 9.93225 14.3212 10.1677C15.5632 11.4087 16.1575 13.3463 15.9641 15.093C15.7668 16.8753 14.7343 18.5172 12.7058 18.9859C12.391 19.0586 12.0809 18.8436 12.0132 18.5058C11.9454 18.1679 12.1457 17.835 12.4604 17.7623C13.9233 17.4243 14.6577 16.2877 14.8063 14.9454C14.9589 13.5675 14.478 12.0343 13.5268 11.0839C13.2911 10.8484 13.2779 10.4524 13.4973 10.1994Z" fill="black" fill-opacity="0.9"/>
<path fill-rule="evenodd" clip-rule="evenodd" d="M12.6568 14.0315C12.958 14.1406 13.1228 14.5012 13.0249 14.8369C12.5416 16.4946 12.2646 17.5279 12.1761 18.1779C12.1358 18.4734 12.1452 18.6229 12.1579 18.6882C12.2105 18.706 12.322 18.7252 12.54 18.7209C12.7691 18.7164 13.0495 18.6891 13.4108 18.654C13.4247 18.6526 13.4388 18.6512 13.453 18.6498C14.2036 18.5769 15.2072 18.4835 16.457 18.5578C16.7733 18.5765 17.016 18.8776 16.9992 19.2301C16.9823 19.5826 16.7122 19.8532 16.396 19.8344C15.2308 19.7651 14.2942 19.8514 13.5527 19.9234C13.5312 19.9255 13.5097 19.9276 13.4884 19.9297C13.1484 19.9628 12.8307 19.9938 12.5604 19.9991C12.2825 20.0046 11.9761 19.987 11.7075 19.8652C11.395 19.7235 11.1674 19.4567 11.0643 19.077C10.9749 18.7476 10.9897 18.3706 11.0421 17.986C11.1477 17.2107 11.4599 16.0683 11.9341 14.4418C12.032 14.1061 12.3556 13.9224 12.6568 14.0315Z" fill="black" fill-opacity="0.9"/>
<path fill-rule="evenodd" clip-rule="evenodd" d="M19.4405 8.43493C20.1286 7.79522 20.9968 6.98812 22.2918 7.00013C22.6862 7.00379 23.0033 7.36006 23 7.79588C22.9967 8.23171 22.6742 8.58204 22.2798 8.57838C21.53 8.57142 21.0567 9.00545 20.2897 9.70863C20.2505 9.74464 20.2104 9.78135 20.1696 9.81874C19.8657 10.0966 19.4155 10.0498 19.164 9.71402C18.9125 9.37827 18.955 8.88081 19.2588 8.60291C19.318 8.54875 19.3785 8.49252 19.4405 8.43493Z" fill="black" fill-opacity="0.9"/>
<path fill-rule="evenodd" clip-rule="evenodd" d="M21.0788 10.9075C20.518 10.621 20.1343 10.4249 19.6743 10.4786C19.3365 10.518 19.0359 10.2224 19.0029 9.8183C18.97 9.4142 19.2171 9.05465 19.555 9.01523C20.3409 8.92352 21.0014 9.26531 21.5042 9.52551C21.546 9.54714 21.5868 9.56822 21.6264 9.58843C21.9386 9.74774 22.0837 10.1796 21.9506 10.5531C21.8174 10.9266 21.4563 11.1002 21.1441 10.9409C21.122 10.9296 21.1003 10.9185 21.0788 10.9075Z" fill="black" fill-opacity="0.9"/>
</svg>
