<svg width="17" height="20" viewBox="0 0 17 20" fill="none" xmlns="http://www.w3.org/2000/svg">
<path fill-rule="evenodd" clip-rule="evenodd" d="M8.6579 7.5536C9.1169 7.84514 9.39392 8.28164 9.53065 8.66908C9.54815 8.71867 9.55864 8.76903 9.56264 8.81909C9.57238 8.82668 9.58195 8.83463 9.59133 8.84292C9.83574 9.05917 9.85857 9.4326 9.64232 9.67701C9.0013 10.4015 7.47375 12.4841 6.02042 14.4929C5.64906 15.0062 5.27878 15.5199 4.93308 15.9994C4.61439 16.4415 4.3166 16.8546 4.05811 17.2118C3.52505 17.9482 3.10727 18.5194 2.96281 18.6847C2.23402 19.5186 1.17824 19.3757 0.633508 18.9399L0.633505 18.9399C0.0349792 18.4611 -0.04956 17.8419 0.0209373 17.383C0.0545927 17.164 0.122067 16.9791 0.178742 16.8514C0.207562 16.7865 0.234912 16.7334 0.256239 16.6946C0.26634 16.6763 0.275192 16.6609 0.282344 16.6489C1.51681 14.287 4.98761 9.48971 6.52955 7.53519C6.60937 7.43402 6.72007 7.36171 6.8448 7.32929C7.5669 7.14159 8.18179 7.25119 8.6579 7.5536ZM8.4915 9.20785C8.46049 9.16413 8.43496 9.11543 8.41624 9.06237C8.34772 8.86821 8.21422 8.6718 8.02428 8.55116C7.87707 8.45765 7.65756 8.38439 7.32574 8.4349C5.729 10.4804 2.46037 15.0246 1.32151 17.212C1.31364 17.2271 1.30512 17.2419 1.29598 17.2562C1.29588 17.2564 1.29578 17.2566 1.29568 17.2567L1.29584 17.2565L1.29598 17.2562L1.29634 17.2557L1.2972 17.2543L1.29834 17.2525C1.29863 17.252 1.29877 17.2518 1.29877 17.2518L1.29852 17.2522C1.29775 17.2535 1.29532 17.2576 1.29166 17.2643C1.28426 17.2777 1.27232 17.3006 1.25891 17.3308C1.23113 17.3934 1.20239 17.4754 1.18901 17.5625C1.16543 17.716 1.18351 17.8665 1.37178 18.0171C1.42938 18.0632 1.54711 18.1128 1.68412 18.1075C1.804 18.103 1.94199 18.0569 2.07297 17.907C2.17108 17.7947 2.54346 17.2888 3.10079 16.5189C3.36531 16.1534 3.65959 15.7451 3.97476 15.3079C4.31669 14.8335 4.68321 14.3251 5.06295 13.8002C6.33478 12.0423 7.7146 10.1557 8.4915 9.20785Z" fill="#1E1E1E"/>
<path fill-rule="evenodd" clip-rule="evenodd" d="M7.91977 7.56194C7.86792 7.63414 7.81375 7.70956 7.75586 7.78895C7.56357 8.05262 7.19395 8.1105 6.93027 7.91821C6.6666 7.72593 6.60872 7.3563 6.801 7.09263C6.84677 7.02987 6.89399 6.96414 6.94216 6.89709C7.06896 6.72056 7.20235 6.53488 7.33324 6.37003C7.51672 6.13897 7.73186 5.90016 7.99066 5.71901C8.25945 5.53086 8.58265 5.40005 8.96417 5.40288C9.33736 5.40564 9.7068 5.53588 10.0758 5.76139C10.3274 5.91517 10.7974 6.21992 11.0647 6.67664C11.2081 6.92176 11.3035 7.22743 11.2622 7.57617C11.2213 7.92124 11.0542 8.24344 10.7909 8.53968C10.5741 8.78358 10.2006 8.80555 9.95669 8.58874C9.71278 8.37193 9.69081 7.99844 9.90762 7.75454C10.0548 7.58896 10.0831 7.48342 10.0886 7.43707C10.0937 7.39439 10.0865 7.34494 10.0447 7.2735C9.94147 7.0971 9.71014 6.92291 9.45957 6.76978C9.21282 6.61898 9.05264 6.58534 8.95541 6.58462C8.86652 6.58396 8.77851 6.61006 8.66834 6.68717C8.54819 6.77128 8.41664 6.90607 8.25874 7.10492C8.1466 7.24614 8.03936 7.39545 7.91977 7.56194Z" fill="#1E1E1E"/>
<path fill-rule="evenodd" clip-rule="evenodd" d="M9.73268 1.23896C9.73206 1.24068 9.73123 1.24301 9.73023 1.24599C9.72522 1.26083 9.7184 1.28362 9.71049 1.31463C9.69734 1.36619 9.68458 1.42712 9.67356 1.48992C9.75075 1.56777 9.8153 1.62638 9.85603 1.6565C10.1472 1.87189 10.254 2.25805 10.115 2.59247C9.98339 2.90881 9.66383 3.10175 9.3266 3.07543C9.3192 3.14318 9.3112 3.21493 9.30268 3.29006C9.26191 3.6498 8.9812 3.93545 8.62222 3.9825C8.26324 4.02955 7.91841 3.82588 7.78631 3.48879C7.74128 3.3739 7.69656 3.24878 7.66014 3.14685C7.65864 3.14267 7.65716 3.13852 7.65569 3.13442C7.64725 3.13431 7.63891 3.13415 7.63068 3.13395C7.55515 3.13213 7.3671 3.12724 7.18448 3.04663C7.08377 3.00218 6.87616 2.8871 6.75976 2.62927C6.63382 2.35029 6.69866 2.09639 6.75808 1.96113C6.81307 1.83597 6.88721 1.75063 6.92223 1.71247C6.96349 1.66751 7.00388 1.63154 7.03143 1.60801C7.03249 1.6071 7.03355 1.6062 7.03462 1.60529C7.01447 1.55804 6.99247 1.50273 6.97309 1.44378C6.88037 1.16171 6.95411 0.851462 7.16383 0.641275C7.37355 0.431088 7.68363 0.356661 7.96591 0.448756C8.006 0.461833 8.04512 0.476482 8.07672 0.488683C8.10935 0.50128 8.14343 0.514962 8.17395 0.527252C8.17756 0.528707 8.18114 0.530148 8.18468 0.531576C8.18693 0.532479 8.18915 0.533377 8.19137 0.53427C8.20197 0.52627 8.2127 0.518177 8.2235 0.510025C8.34698 0.416841 8.48072 0.315914 8.55806 0.259153C8.85214 0.0433165 9.25593 0.0575869 9.53405 0.293645C9.80872 0.526785 9.88985 0.91604 9.73268 1.23896ZM7.26187 1.42242C7.2619 1.42242 7.26136 1.42299 7.26019 1.42414C7.26126 1.423 7.26184 1.42242 7.26187 1.42242ZM9.38175 2.32765C9.38175 2.32766 9.38175 2.32768 9.38175 2.3277L9.38175 2.32765Z" fill="#1E1E1E"/>
<path fill-rule="evenodd" clip-rule="evenodd" d="M15.299 2.2298C15.5958 2.44005 15.7101 2.82619 15.5755 3.16414C15.5236 3.29453 15.4494 3.52926 15.3922 3.74516C15.3905 3.75171 15.3888 3.75817 15.3871 3.76455C15.5022 3.89668 15.6412 4.05418 15.756 4.18141C15.9989 4.45057 16.0268 4.85074 15.8235 5.15095C15.6202 5.45116 15.2383 5.5739 14.8982 5.44832C14.8775 5.44067 14.8562 5.43282 14.8344 5.42489C14.8091 5.56482 14.7792 5.73252 14.7453 5.93205C14.6857 6.28222 14.3992 6.54922 14.0457 6.58398C13.6922 6.61874 13.3591 6.41266 13.2325 6.0808C13.161 5.89347 13.1025 5.6708 13.0591 5.5055C13.0543 5.48727 13.0497 5.46974 13.0452 5.45303C13.0411 5.43739 13.0371 5.42226 13.0332 5.40761C12.9705 5.40453 12.9122 5.40038 12.8584 5.39494C12.7621 5.38519 12.561 5.36277 12.3772 5.26362C12.2757 5.20889 12.0764 5.07544 11.9801 4.80746C11.8763 4.51874 11.9599 4.26941 12.0304 4.13671C12.0958 4.01354 12.1782 3.93107 12.2194 3.89229C12.2673 3.84728 12.3144 3.81099 12.3485 3.78595C12.4021 3.74659 12.4668 3.70402 12.5119 3.67442C12.5144 3.67275 12.5169 3.67112 12.5193 3.66953C12.4971 3.60641 12.4719 3.55011 12.4515 3.51264C12.2901 3.21596 12.3358 2.84939 12.565 2.60136C12.7943 2.35332 13.1561 2.27901 13.4646 2.41662C13.5454 2.45267 13.6342 2.49704 13.7068 2.53335C13.7096 2.53476 13.7124 2.53616 13.7152 2.53754C13.7578 2.5588 13.7968 2.5783 13.8333 2.59608C13.8728 2.57201 13.9144 2.54651 13.9565 2.52042C14.0495 2.46278 14.1404 2.40515 14.2149 2.35567C14.2794 2.3128 14.3122 2.28872 14.3226 2.28109C14.3261 2.27851 14.327 2.27781 14.3258 2.27891C14.5999 2.03984 15.0021 2.01954 15.299 2.2298Z" fill="#1E1E1E"/>
<path fill-rule="evenodd" clip-rule="evenodd" d="M11.693 1.81841C11.4302 1.88162 11.1419 1.8079 10.9408 1.59932C10.6724 1.32098 10.6497 0.896166 10.8677 0.593061C11.0165 0.244852 11.3994 0.0452416 11.7793 0.138213C12.0183 0.196728 12.205 0.358609 12.3033 0.56469C12.3123 0.579567 12.3207 0.594595 12.3285 0.609722C12.3879 0.724258 12.4083 0.831282 12.415 0.906993C12.4218 0.983459 12.4165 1.04795 12.4099 1.0937C12.3972 1.18274 12.3721 1.25274 12.3546 1.29529C12.3354 1.34186 12.3138 1.38297 12.2924 1.41817C12.2709 1.45352 12.2449 1.49089 12.2137 1.5282C12.1844 1.56322 12.1384 1.61277 12.074 1.66137C12.041 1.68631 11.9956 1.71672 11.9382 1.74458C11.8816 1.77206 11.8008 1.80319 11.6997 1.81749C11.6975 1.81781 11.6952 1.81811 11.693 1.81841ZM12.3552 1.09982C12.3552 1.0998 12.3554 1.09876 12.3558 1.09679L12.3552 1.09982ZM12.0662 1.60896C12.0662 1.60896 12.0659 1.60921 12.0653 1.60976L12.0662 1.60896Z" fill="#1E1E1E"/>
<path fill-rule="evenodd" clip-rule="evenodd" d="M13.068 8.72857C12.8052 8.79178 12.5169 8.71806 12.3158 8.50947C12.0474 8.23114 12.0247 7.80632 12.2427 7.50322C12.3915 7.15501 12.7744 6.9554 13.1543 7.04837C13.3933 7.10688 13.58 7.26877 13.6783 7.47485C13.6873 7.48972 13.6957 7.50475 13.7035 7.51988C13.7629 7.63441 13.7833 7.74144 13.79 7.81715C13.7968 7.89362 13.7915 7.95811 13.7849 8.00386C13.7722 8.09289 13.7471 8.1629 13.7296 8.20544C13.7104 8.25202 13.6888 8.29312 13.6674 8.32833C13.6459 8.36368 13.6199 8.40105 13.5887 8.43836C13.5594 8.47337 13.5134 8.52293 13.449 8.57152C13.416 8.59646 13.3706 8.62687 13.3132 8.65473C13.2566 8.68222 13.1758 8.71335 13.0747 8.72765C13.0725 8.72796 13.0702 8.72827 13.068 8.72857ZM13.7302 8.00998C13.7302 8.00995 13.7304 8.00892 13.7308 8.00694L13.7302 8.00998ZM13.4412 8.51912C13.4412 8.51911 13.4409 8.51937 13.4403 8.51991L13.4412 8.51912Z" fill="#1E1E1E"/>
<path fill-rule="evenodd" clip-rule="evenodd" d="M6.8336 5.51324C6.57087 5.57645 6.28251 5.50273 6.08139 5.29414C5.81303 5.01581 5.79031 4.59099 6.00834 4.28789C6.15708 3.93968 6.54004 3.74007 6.9199 3.83304C7.15897 3.89155 7.34561 4.05343 7.44391 4.25951C7.4529 4.27439 7.46132 4.28942 7.46916 4.30455C7.52855 4.41908 7.54893 4.52611 7.55565 4.60182C7.56244 4.67828 7.55711 4.74278 7.55056 4.78853C7.53781 4.87756 7.51277 4.94756 7.49524 4.99011C7.47604 5.03668 7.45438 5.07779 7.43301 5.11299C7.41154 5.14835 7.38554 5.18572 7.35431 5.22303C7.32501 5.25804 7.27899 5.3076 7.21464 5.35619C7.18163 5.38113 7.13625 5.41154 7.07887 5.4394C7.02227 5.46688 6.94138 5.49802 6.84031 5.51232C6.83808 5.51263 6.83584 5.51294 6.8336 5.51324ZM7.49582 4.79465C7.49584 4.79462 7.49607 4.79358 7.49644 4.79161L7.49582 4.79465ZM7.20684 5.30379C7.20684 5.30378 7.20654 5.30404 7.20593 5.30458L7.20684 5.30379Z" fill="#1E1E1E"/>
</svg>
